<?xml version="1.0" encoding="utf-8"?>
<!-- Generator: Adobe Illustrator 22.0.1, SVG Export Plug-In . SVG Version: 6.00 Build 0)  -->
<svg version="1.1" id="Layer_1" xmlns="http://www.w3.org/2000/svg" xmlns:xlink="http://www.w3.org/1999/xlink" x="0px" y="0px"
	 viewBox="0 0 40 40" style="enable-background:new 0 0 40 40;" xml:space="preserve">
<style type="text/css">
	.st0{fill:none;}
	.st1{fill:#B11739;}
</style>
<g>
	<g>
		<polygon class="st0" points="17.9,28.4 18.2,26.4 17.7,26.4 17.6,27.2 17,27.2 17.1,26.4 16.6,26.4 16.2,28.4 16.8,28.4 
			16.9,27.6 17.5,27.6 17.4,28.4 		"/>
		<polygon class="st0" points="19.1,28 18.5,28 18.8,26.4 18.3,26.4 18,28.4 19,28.4 		"/>
		<g>
			<polygon class="st0" points="20.3,26.4 19,26.4 18.9,26.8 19.3,26.8 19.2,28 19.2,28 19.1,28.4 19.1,28.4 19.1,28.4 19.6,28.4 
				19.9,26.8 20.2,26.8 			"/>
			<polygon class="st0" points="21.7,26.4 21,27.6 20.7,26.4 20.4,26.4 20.3,26.4 20.3,26.9 20.7,28.4 21.1,28.4 22.2,26.4 			"/>
		</g>
	</g>
	<g>
		<path class="st0" d="M22,28.3c0,0.1-0.1,0.2-0.2,0.2c-0.1,0-0.2-0.1-0.2-0.2c0-0.1,0.1-0.2,0.2-0.2C21.9,28.1,22,28.1,22,28.3z"/>
		<path class="st0" d="M23,27.9c0,0.3-0.2,0.5-0.5,0.5c-0.3,0-0.4-0.3-0.3-0.5c0-0.3,0.2-0.5,0.5-0.5C23,27.4,23,27.6,23,27.9z
			 M22.5,27.9c0,0.1,0,0.3,0.1,0.3c0.1,0,0.1-0.2,0.1-0.3s0-0.3-0.1-0.3C22.5,27.6,22.5,27.8,22.5,27.9z"/>
		<path class="st0" d="M23.5,27.4l0,0.1h0c0.1-0.1,0.1-0.2,0.3-0.2l0,0.3c0,0,0,0,0,0c-0.2,0-0.2,0.1-0.2,0.3l-0.1,0.5H23l0.2-1
			H23.5z"/>
		<path class="st0" d="M23.9,28.6c0,0.1,0,0.1,0.1,0.1c0.1,0,0.1-0.2,0.2-0.3l0-0.1h0c0,0-0.1,0.1-0.1,0.1c0,0-0.1,0-0.1,0
			c-0.1,0-0.2-0.1-0.2-0.2c0-0.1,0-0.2,0-0.4c0-0.2,0.1-0.6,0.4-0.6c0.1,0,0.2,0.1,0.2,0.1h0l0-0.1h0.3l-0.2,1.1
			c0,0.3-0.2,0.4-0.5,0.4c-0.2,0-0.3-0.1-0.3-0.4L23.9,28.6L23.9,28.6z M24.2,27.9c0-0.1,0-0.3-0.1-0.3c-0.1,0-0.1,0.2-0.1,0.3
			c0,0.1,0,0.3,0.1,0.3C24.2,28.2,24.2,28,24.2,27.9z"/>
	</g>
</g>
<path class="st1" d="M2.2,9h0.4c1.6,0,4.7,1.3,9,3.9c2.2,1.5,3.5,2.2,3.8,2.2h0.1l3-0.7l2-0.2c1.4,0,3,0.3,4.7,0.9l0.2,0
	c1.7-0.4,3.3-0.6,4.8-0.6c3.1,0,6.1,0.7,9.1,2.1c0.5,0.3,0.7,0.6,0.7,0.9v0c0,0.2-0.2,0.4-0.5,0.5c-0.3,0.2-0.5,0.3-0.6,0.3h-3
	c-3.6,0-6.7,1.1-9.4,3.4c-1.5,1.5-2.3,2.8-2.3,3.8c0,0.9,0.7,1.6,2.2,1.9c0.4,0.1,1.1,0.1,2.2,0.2c0.6,0,1.9-0.1,3.9-0.3h0.2
	c0.1,0,0.3,0.1,0.5,0.3c0.4,0,0.6,0.2,0.7,0.6v0.1c0,0.8-2.5,1.6-7.6,2.2c-0.8,0.1-1.7,0.1-2.8,0.2c-3.2,0-5.6-0.6-7.2-1.9
	c-1.7-1.1-2.7-2.3-3.2-3.6l0-0.2v-0.3c0-0.4,0.3-0.6,0.8-0.6l1.3,0.2c0.8,0,1.3-0.4,1.6-1.3l0.1-0.6v-0.3c0-1.7-1.5-3.9-4.4-6.6
	c-1.6-1.4-3.1-2.5-4.4-3.3c-2.7-1.6-4.6-2.4-5.7-2.4c-1.1,0.1-1.6,0.6-1.6,1.5c0,0.9,0.8,2.3,2.3,4.2l3.6,3.8v0
	c-1-0.8-2.4-2.1-4.1-3.8C0.8,13.9,0,12.4,0,11C0,9.8,0.7,9.1,2.2,9L2.2,9z M19.6,16.8c0,0.7,0.7,1.2,2.1,1.4h0.8
	c1.1,0,2-0.2,2.7-0.7l0.1-0.3v-0.1c0-0.6-1-1.1-3.1-1.4l-1-0.1c-0.9,0-1.5,0.3-1.6,0.9L19.6,16.8L19.6,16.8z M8.5,20.1L8.5,20.1
	c1.1,0,2,0.5,2.7,1.6c0.2,0.3,0.3,0.6,0.3,0.9v0.1c0,0.5-0.4,0.8-1.2,0.9c-1,0-1.8-0.5-2.6-1.5c-0.2-0.3-0.3-0.6-0.3-0.8V21
	C7.4,20.5,7.8,20.2,8.5,20.1L8.5,20.1z"/>
</svg>
